<svg xmlns="http://www.w3.org/2000/svg" viewBox="0 0 600 700">
  <rect width="600" height="700" fill="white"/>

  <g fill="black">

    <!-- cappello alto -->
    <rect x="260" y="40" width="80" height="60" rx="20"/>

    <!-- asse verticale -->
    <rect x="285" y="90" width="30" height="350"/>

    <!-- croce superiore -->
    <rect x="170" y="140" width="260" height="50" rx="25"/>

    <!-- croce centrale -->
    <rect x="170" y="220" width="260" height="50" rx="25"/>

    <!-- infinito sinistra -->
    <path d="
      M300 420
      C240 350 140 360 120 430
      C100 500 180 560 260 500
      C290 480 300 460 300 420
      C300 460 290 480 260 500
      C180 560 100 500 120 430
      C140 360 240 350 300 420
    " fill="none" stroke="black" stroke-width="35"/>

    <!-- infinito destra -->
    <path d="
      M300 420
      C360 350 460 360 480 430
      C500 500 420 560 340 500
      C310 480 300 460 300 420
      C300 460 310 480 340 500
      C420 560 500 500 480 430
      C460 360 360 350 300 420
    " fill="none" stroke="black" stroke-width="35"/>

    <!-- doppio trattino centrale -->
    <rect x="275" y="465" width="50" height="12"/>
    <rect x="275" y="495" width="50" height="12"/>

  </g>
</svg>
