<svg xmlns="http://www.w3.org/2000/svg" viewBox="0 0 600 720">

<rect width="600" height="720" fill="white"/>

<g fill="black">

  <!-- cappello superiore -->
  <rect x="250" y="60" width="100" height="26" rx="13"/>

  <!-- asse verticale -->
  <rect x="285" y="80" width="30" height="350"/>

  <!-- doppia barra -->
  <rect x="170" y="160" width="260" height="34" rx="17"/>
  <rect x="170" y="220" width="260" height="34" rx="17"/>

  <!-- infinito principale -->
  <path d="
    M300 420
    C230 340 120 360 110 440
    C100 520 200 580 280 500
    C295 485 300 470 300 450
    C300 470 305 485 320 500
    C400 580 500 520 490 440
    C480 360 370 340 300 420
  " fill="none" stroke="black" stroke-width="40" stroke-linecap="round"/>

  <!-- due trattini interni -->
  <rect x="270" y="465" width="60" height="12" rx="6"/>
  <rect x="270" y="495" width="60" height="12" rx="6"/>

</g>

</svg>
